<svg width="459" height="151" viewBox="0 0 459 151" fill="none" xmlns="http://www.w3.org/2000/svg">
<path d="M13.056 103.616C12.48 103.616 11.712 103.328 10.752 102.752C9.792 102.176 8.928 101.472 8.16 100.64C7.648 100.064 7.2 99.456 6.816 98.816C6.496 98.176 6.336 97.536 6.336 96.896C6.336 96.192 6.464 95.168 6.72 93.824C6.976 92.48 7.104 91.68 7.104 91.424C7.104 90.848 7.2 89.856 7.392 88.448C7.648 86.976 7.904 85.504 8.16 84.032C8.48 82.496 8.704 81.344 8.832 80.576C8.896 80.256 8.928 80.032 8.928 79.904C8.992 79.776 9.024 79.712 9.024 79.712C9.344 78.624 9.6 77.632 9.792 76.736C10.048 75.776 10.24 74.88 10.368 74.048C10.944 71.552 11.328 69.696 11.52 68.48C11.776 67.2 12.096 66.048 12.48 65.024C12.672 64.448 12.896 63.904 13.152 63.392C13.344 62.944 13.568 62.464 13.824 61.952C14.08 61.44 14.4 60.864 14.784 60.224C16.064 56.64 17.12 53.824 17.952 51.776C18.784 49.664 19.616 47.808 20.448 46.208C20.512 46.08 20.544 45.952 20.544 45.824C20.608 45.696 20.672 45.6 20.736 45.536C21.376 43.808 22.208 42.08 23.232 40.352C24.32 38.624 25.6 36.896 27.072 35.168C28.608 33.44 30.336 31.712 32.256 29.984C33.6 29.344 34.912 28.768 36.192 28.256C37.536 27.744 38.816 27.488 40.032 27.488C41.312 27.488 42.464 27.776 43.488 28.352C44.512 28.864 45.376 29.472 46.08 30.176C46.912 30.944 47.52 31.776 47.904 32.672C48.352 33.504 48.576 34.176 48.576 34.688C48.32 35.712 47.808 36.896 47.04 38.24C46.336 39.52 45.536 40.736 44.64 41.888C43.744 43.04 42.912 44 42.144 44.768C41.44 45.536 40.96 45.92 40.704 45.92C40.064 45.92 39.648 45.632 39.456 45.056C39.328 44.416 39.104 43.744 38.784 43.04C38.656 42.784 38.496 42.528 38.304 42.272C38.176 42.016 38.016 41.792 37.824 41.6C37.824 41.28 37.952 40.736 38.208 39.968C38.528 39.136 38.688 38.4 38.688 37.76C38.688 37.376 38.56 36.992 38.304 36.608C38.112 36.224 37.824 36.192 37.44 36.512C36.864 36.896 36.32 37.28 35.808 37.664C35.36 37.984 34.912 38.336 34.464 38.72C34.016 39.104 33.536 39.616 33.024 40.256C32.576 40.832 32.032 41.568 31.392 42.464C31.136 42.848 30.88 43.232 30.624 43.616C30.368 43.936 30.176 44.256 30.048 44.576C29.664 45.152 29.376 45.664 29.184 46.112C29.056 46.496 28.928 46.848 28.8 47.168C28.672 47.552 28.576 47.808 28.512 47.936C28.448 48.064 28.352 48.128 28.224 48.128C28.288 48 28.16 48.288 27.84 48.992C27.584 49.696 27.232 50.496 26.784 51.392C26.528 52.032 26.24 52.64 25.92 53.216C25.6 53.792 25.28 54.24 24.96 54.56H25.056C25.056 54.56 24.896 54.944 24.576 55.712C24.32 56.416 24.032 57.152 23.712 57.92C23.392 58.688 23.232 59.136 23.232 59.264C23.232 59.584 23.776 59.648 24.864 59.456C26.016 59.264 27.264 59.04 28.608 58.784C30.016 58.464 31.104 58.304 31.872 58.304C32.384 58.304 32.832 58.4 33.216 58.592C33.664 58.72 34.016 58.912 34.272 59.168C34.848 59.68 35.264 60.384 35.52 61.28C35.84 62.112 36 62.976 36 63.872C36 64.384 35.52 64.832 34.56 65.216C33.6 65.536 32.128 65.952 30.144 66.464C28.416 66.848 26.944 67.168 25.728 67.424C24.576 67.68 23.616 67.904 22.848 68.096C22.08 68.288 21.44 68.544 20.928 68.864C20.48 69.12 20.128 69.44 19.872 69.824C19.68 70.144 19.52 70.56 19.392 71.072C19.392 71.328 19.36 71.552 19.296 71.744C19.296 71.872 19.264 72 19.2 72.128C19.136 72.384 19.008 72.896 18.816 73.664C18.624 74.368 18.4 75.2 18.144 76.16C17.952 77.12 17.728 78.112 17.472 79.136C17.28 80.096 17.088 81.024 16.896 81.92C16.832 82.56 16.736 83.136 16.608 83.648C16.544 84.16 16.512 84.544 16.512 84.8C16.256 85.12 15.968 85.888 15.648 87.104C15.392 88.32 15.232 89.28 15.168 89.984C15.168 90.112 15.168 90.272 15.168 90.464C15.168 90.592 15.168 90.72 15.168 90.848C15.168 91.104 15.072 91.872 14.88 93.152C14.752 94.496 14.688 95.872 14.688 97.28L14.4 100.064C14.336 100.96 14.208 101.76 14.016 102.464C13.888 103.232 13.568 103.616 13.056 103.616ZM41.664 91.424C40.64 91.424 39.68 90.912 38.784 89.888C37.888 88.864 37.44 87.456 37.44 85.664C37.44 84.32 37.568 83.04 37.824 81.824C38.144 80.608 38.528 79.072 38.976 77.216C39.424 76.128 39.904 74.752 40.416 73.088C40.992 71.36 41.536 69.664 42.048 68C42.624 66.272 43.104 64.8 43.488 63.584C43.872 62.304 44.096 61.568 44.16 61.376C44.224 61.056 44.384 60.8 44.64 60.608C44.896 60.416 45.248 60.32 45.696 60.32C46.336 60.32 47.072 60.608 47.904 61.184C48.736 61.76 49.472 62.496 50.112 63.392C50.816 64.224 51.232 65.024 51.36 65.792C51.36 66.432 51.296 66.944 51.168 67.328C51.104 67.712 50.944 68.224 50.688 68.864C50.432 69.44 50.08 70.4 49.632 71.744C49.184 73.024 48.608 74.88 47.904 77.312C47.264 79.68 46.464 82.88 45.504 86.912C45.12 88.512 44.64 89.664 44.064 90.368C43.488 91.072 42.688 91.424 41.664 91.424ZM46.56 48.512C46.56 47.808 46.848 46.816 47.424 45.536C48 44.192 48.704 42.976 49.536 41.888C50.368 40.736 51.168 40.16 51.936 40.16C52.32 40.16 52.672 40.192 52.992 40.256C53.376 40.32 53.728 40.416 54.048 40.544C55.392 41.056 56.416 42.08 57.12 43.616C57.888 45.152 58.016 46.816 57.504 48.608C56.992 50.336 55.52 51.84 53.088 53.12C52.832 53.248 52.576 53.312 52.32 53.312C52.128 53.312 51.872 53.312 51.552 53.312C50.4 53.312 49.44 53.024 48.672 52.448C47.968 51.808 47.424 51.104 47.04 50.336C46.72 49.568 46.56 48.96 46.56 48.512ZM85.6305 89.696C84.2225 89.568 83.0385 89.28 82.0785 88.832C81.1825 88.32 80.4465 87.328 79.8705 85.856C79.6145 84.832 79.4865 83.776 79.4865 82.688C79.5505 81.536 79.6465 80.448 79.7745 79.424C79.9025 78.336 79.9665 77.408 79.9665 76.64C79.9665 76.512 79.9665 76.256 79.9665 75.872C79.9665 75.488 79.9665 75.136 79.9665 74.816C79.8385 73.856 79.5825 73.28 79.1985 73.088C78.8785 72.832 78.3025 72.864 77.4705 73.184C76.1265 73.824 74.6545 74.688 73.0545 75.776C71.5185 76.8 69.8865 78.016 68.1585 79.424C66.4945 80.768 64.7665 82.208 62.9745 83.744C61.5665 85.28 60.5105 86.528 59.8065 87.488C59.1665 88.448 58.4945 88.928 57.7905 88.928C57.2785 89.184 56.7345 89.12 56.1585 88.736C55.5825 88.352 54.9745 87.904 54.3345 87.392C53.8865 86.88 53.3425 86.24 52.7025 85.472C52.1265 84.64 51.7745 84.096 51.6465 83.84C51.6465 82.816 51.7105 81.888 51.8385 81.056C52.0305 80.224 52.2865 79.36 52.6065 78.464C52.9905 77.568 53.4385 76.544 53.9505 75.392C54.2065 74.944 54.4305 74.496 54.6225 74.048C54.8785 73.536 55.1665 72.992 55.4865 72.416C55.7425 71.52 56.0945 70.496 56.5425 69.344C57.0545 68.192 57.5345 67.104 57.9825 66.08C58.6865 64.416 59.2305 62.976 59.6145 61.76C59.9985 60.544 60.3185 59.232 60.5745 57.824C60.5105 57.696 60.5425 57.504 60.6705 57.248C60.7985 56.992 60.9905 56.832 61.2465 56.768H61.3425H61.4385C61.8865 56.448 62.7185 56.416 63.9345 56.672C65.2145 56.864 66.1745 57.216 66.8145 57.728C68.1585 58.88 68.7985 60.384 68.7345 62.24C68.6705 64.096 67.7105 66.528 65.8545 69.536C65.4065 70.56 64.9265 71.52 64.4145 72.416C63.9665 73.248 63.7425 73.824 63.7425 74.144C63.7425 74.144 63.9985 73.952 64.5105 73.568C65.0225 73.184 65.6305 72.736 66.3345 72.224C67.0385 71.648 67.6465 71.2 68.1585 70.88C68.4785 70.56 69.1825 69.984 70.2705 69.152C71.3585 68.256 72.5425 67.328 73.8225 66.368C75.1025 65.408 76.1265 64.672 76.8945 64.16C77.5985 63.648 78.4945 63.136 79.5825 62.624C80.6705 62.048 81.3425 61.76 81.5985 61.76C82.2385 61.76 83.0065 61.984 83.9025 62.432C84.8625 62.88 85.7265 63.424 86.4945 64.064C87.3265 64.64 87.8065 65.184 87.9345 65.696C87.9345 65.952 87.9025 66.304 87.8385 66.752C87.7745 67.136 87.7425 67.488 87.7425 67.808C87.6785 68.832 87.6465 70.08 87.6465 71.552C87.7105 72.96 87.7425 74.4 87.7425 75.872C87.7425 77.28 87.6145 78.56 87.3585 79.712C87.3585 79.712 87.3905 79.776 87.4545 79.904C87.5185 79.968 87.5825 80.096 87.6465 80.288C87.5825 80.352 87.5505 80.48 87.5505 80.672C87.6145 80.8 87.6465 80.864 87.6465 80.864C87.7745 81.312 87.9025 81.76 88.0305 82.208C88.2225 82.656 88.4465 83.168 88.7025 83.744C88.9585 84.256 89.2465 84.928 89.5665 85.76C89.5025 86.592 89.0225 87.424 88.1265 88.256C87.2945 89.024 86.4625 89.504 85.6305 89.696ZM96.093 90.368C95.581 89.856 95.197 89.088 94.941 88.064C94.749 87.04 94.685 86.048 94.749 85.088C94.813 84.064 94.973 83.296 95.229 82.784C95.229 82.272 95.293 81.888 95.421 81.632C95.613 81.312 95.677 81.024 95.613 80.768C95.549 80.512 95.613 80.064 95.805 79.424C95.997 78.784 96.189 78.176 96.381 77.6C96.829 76.576 97.341 75.264 97.917 73.664C98.493 72 99.069 70.336 99.645 68.672C100.221 66.944 100.701 65.472 101.085 64.256C101.469 62.976 101.693 62.208 101.757 61.952C101.757 61.184 102.269 60.768 103.293 60.704C104.061 60.448 104.989 60.768 106.077 61.664C107.165 62.56 108.029 63.52 108.669 64.544C109.181 65.056 109.373 65.728 109.245 66.56C109.117 67.392 108.701 68.576 107.997 70.112C107.741 70.624 107.421 71.488 107.037 72.704C106.717 73.856 106.493 74.816 106.365 75.584C106.109 76.096 105.789 76.832 105.405 77.792C105.085 78.688 104.797 79.552 104.541 80.384C104.413 80.704 104.285 81.312 104.157 82.208C104.029 83.04 103.869 83.904 103.677 84.8C103.485 85.696 103.229 86.4 102.909 86.912C102.333 89.536 101.309 91.072 99.837 91.52C98.429 91.968 97.181 91.584 96.093 90.368ZM106.461 51.872C105.757 51.36 105.213 50.752 104.829 50.048C104.509 49.28 104.317 48.608 104.253 48.032C104.253 47.456 104.317 47.104 104.445 46.976C105.085 46.272 105.629 45.344 106.077 44.192C106.589 43.04 107.133 41.984 107.709 41.024C107.837 40.832 107.997 40.576 108.189 40.256C108.445 39.872 108.701 39.648 108.957 39.584C109.725 39.072 110.781 39.104 112.125 39.68C113.533 40.256 114.557 41.056 115.197 42.08C115.773 43.296 115.933 44.544 115.677 45.824C115.485 47.104 114.813 48.448 113.661 49.856C112.701 51.136 111.485 51.968 110.013 52.352C108.541 52.672 107.357 52.512 106.461 51.872ZM122.713 92.576C120.665 92.576 118.777 92.128 117.049 91.232C115.385 90.272 114.041 89.12 113.017 87.776C111.993 86.368 111.481 85.024 111.481 83.744C111.481 83.168 111.577 82.752 111.769 82.496C112.025 82.24 112.377 82.112 112.825 82.112C113.145 82.176 113.529 82.336 113.977 82.592C114.425 82.848 114.873 83.136 115.321 83.456C116.345 84.16 117.465 84.608 118.681 84.8C119.897 84.992 120.985 84.928 121.945 84.608C122.905 84.224 123.449 83.648 123.577 82.88C123.577 82.624 123.449 82.08 123.193 81.248C122.937 80.416 122.617 79.616 122.233 78.848C120.633 76.48 119.641 74.24 119.257 72.128C118.873 69.952 118.617 67.776 118.489 65.6C118.489 64.704 118.905 63.712 119.737 62.624C120.569 61.472 121.593 60.352 122.809 59.264C124.153 58.112 125.625 57.024 127.225 56C128.889 54.976 130.521 54.112 132.121 53.408C133.721 52.704 135.065 52.288 136.153 52.16C137.305 52.16 138.521 52.224 139.801 52.352C141.145 52.416 142.041 52.64 142.489 53.024C143.385 53.728 144.217 54.88 144.985 56.48C145.753 58.08 146.137 59.424 146.137 60.512C146.137 61.024 145.849 61.664 145.273 62.432C144.761 63.136 144.281 63.936 143.833 64.832C143.577 65.28 143.353 65.76 143.161 66.272C142.969 66.784 142.745 67.296 142.489 67.808C142.105 68.704 141.401 69.088 140.377 68.96C139.417 68.768 138.521 68.256 137.689 67.424C136.857 66.528 136.441 65.504 136.441 64.352C136.441 63.392 136.729 62.56 137.305 61.856C137.881 61.152 138.169 60.672 138.169 60.416C138.169 60.288 138.105 60.192 137.977 60.128C137.849 60.064 137.625 60.032 137.305 60.032C136.857 60.032 136.121 60.224 135.097 60.608C134.137 60.928 133.113 61.408 132.025 62.048C130.937 62.688 129.945 63.456 129.049 64.352C128.409 65.056 127.865 65.824 127.417 66.656C127.033 67.424 126.841 68.256 126.841 69.152C126.841 70.048 127.001 71.104 127.321 72.32C127.705 73.472 128.121 74.432 128.569 75.2C128.697 75.328 128.889 75.68 129.145 76.256C129.465 76.768 129.817 77.408 130.201 78.176C132.569 83.04 132.953 86.656 131.353 89.024C129.817 91.392 126.937 92.576 122.713 92.576ZM180.851 91.328C179.635 91.648 178.355 91.872 177.011 92C175.731 92.192 174.611 91.808 173.651 90.848C173.075 89.952 172.563 89.152 172.115 88.448C171.667 87.744 171.379 86.496 171.251 84.704C171.187 83.488 171.251 82.176 171.443 80.768C171.699 79.296 171.795 78.24 171.731 77.6C172.243 75.232 172.371 73.536 172.115 72.512C171.923 71.488 171.667 70.976 171.347 70.976C170.643 70.848 169.523 71.36 167.987 72.512C166.515 73.664 164.755 75.296 162.707 77.408C160.723 79.456 158.579 81.792 156.275 84.416C155.059 86.08 154.163 87.328 153.587 88.16C153.075 88.928 152.691 89.312 152.435 89.312C151.283 89.312 150.227 89.12 149.267 88.736C148.307 88.352 147.539 87.808 146.963 87.104C146.387 86.4 146.035 85.664 145.907 84.896C145.907 84.64 146.067 83.968 146.387 82.88C146.707 81.728 147.091 80.416 147.539 78.944C147.987 77.472 148.403 76.096 148.787 74.816C149.235 73.536 149.555 72.64 149.747 72.128C150.323 70.464 150.995 68.448 151.763 66.08C152.595 63.648 153.331 61.504 153.971 59.648C154.227 58.816 154.675 57.632 155.315 56.096C155.955 54.496 156.595 52.896 157.235 51.296C157.875 49.696 158.323 48.512 158.579 47.744C158.771 47.232 159.123 46.336 159.635 45.056C160.147 43.712 160.691 42.24 161.267 40.64C161.907 39.04 162.483 37.568 162.995 36.224C163.571 34.816 163.955 33.792 164.147 33.152C164.083 32.576 164.115 32.064 164.243 31.616C164.435 31.104 164.627 30.72 164.819 30.464C165.075 30.464 165.363 30.464 165.683 30.464C166.003 30.4 166.163 30.368 166.163 30.368C166.163 30.24 166.579 30.368 167.411 30.752C168.307 31.136 169.171 31.616 170.003 32.192C170.899 32.704 171.347 33.152 171.347 33.536C171.667 34.368 171.699 35.456 171.443 36.8C171.187 38.08 170.515 40.032 169.427 42.656C168.723 43.68 168.019 45.216 167.315 47.264C166.675 49.312 166.035 51.04 165.395 52.448C165.139 52.896 164.755 53.696 164.243 54.848C163.795 55.936 163.251 57.248 162.611 58.784C162.035 60.256 161.459 61.824 160.883 63.488C160.307 65.152 159.795 66.784 159.347 68.384C158.707 69.92 158.483 70.944 158.675 71.456C158.867 71.968 159.635 71.392 160.979 69.728C162.771 67.808 164.435 66.08 165.971 64.544C167.571 63.008 169.043 61.792 170.387 60.896C171.795 59.936 173.043 59.52 174.131 59.648C174.707 59.776 175.443 60.192 176.339 60.896C177.299 61.536 178.195 62.304 179.027 63.2C179.923 64.032 180.499 64.832 180.755 65.6C181.011 66.496 181.171 67.36 181.235 68.192C181.363 69.024 181.395 70.208 181.331 71.744C181.267 73.216 181.107 75.424 180.851 78.368C180.467 80.544 180.211 82.112 180.083 83.072C179.955 83.968 179.987 84.608 180.179 84.992C180.435 85.376 180.819 85.792 181.331 86.24C182.291 87.008 182.675 87.936 182.483 89.024C182.291 90.048 181.747 90.816 180.851 91.328ZM256.795 89.696C256.347 89.568 255.643 89.152 254.683 88.448C253.723 87.744 252.859 86.688 252.091 85.28C251.387 83.872 251.067 82.048 251.131 79.808C251.195 77.888 251.323 76.544 251.515 75.776C251.771 74.944 251.675 74.496 251.227 74.432C250.907 74.368 250.267 74.656 249.307 75.296C248.347 75.936 247.099 76.96 245.563 78.368C244.027 79.776 242.171 81.632 239.995 83.936C239.227 84.576 238.363 85.376 237.403 86.336C236.507 87.232 235.579 87.904 234.619 88.352C233.723 88.8 232.923 88.704 232.219 88.064L231.259 87.2C230.811 86.816 230.427 86.304 230.107 85.664C229.787 85.024 229.691 84.48 229.819 84.032L232.507 76.544C233.275 74.88 233.787 73.664 234.043 72.896C234.363 72.128 234.491 71.648 234.427 71.456C234.427 71.264 234.267 71.2 233.947 71.264C233.563 71.328 233.019 71.68 232.315 72.32C231.611 72.896 231.131 73.376 230.875 73.76C230.619 73.76 230.267 74.016 229.819 74.528C229.435 75.04 229.051 75.488 228.667 75.872C228.283 76.256 227.611 76.992 226.651 78.08C225.691 79.104 224.667 80.192 223.579 81.344C222.747 82.112 221.787 83.136 220.699 84.416C219.611 85.696 218.651 86.848 217.819 87.872C216.987 88.896 216.475 89.408 216.283 89.408C215.131 89.344 214.075 88.96 213.115 88.256C212.219 87.552 211.611 86.688 211.291 85.664C210.907 84.96 210.875 83.68 211.195 81.824C211.515 79.904 212.123 76.864 213.019 72.704C213.275 71.744 213.499 70.912 213.691 70.208C213.947 69.504 214.203 68.8 214.459 68.096C214.715 67.392 215.003 66.592 215.323 65.696C215.707 64.8 216.187 63.712 216.763 62.432C217.083 61.536 217.211 60.704 217.147 59.936C217.083 59.104 217.019 58.432 216.955 57.92C216.955 56.96 217.243 56.192 217.819 55.616C218.459 55.04 219.163 54.656 219.931 54.464C220.699 54.208 221.307 54.144 221.755 54.272C223.547 54.464 224.763 55.104 225.403 56.192C226.043 57.28 226.395 58.336 226.459 59.36C226.523 60.32 226.395 61.184 226.075 61.952C225.755 62.72 225.499 63.36 225.307 63.872L224.251 66.464C223.611 67.936 223.131 69.024 222.811 69.728C222.555 70.368 222.395 70.816 222.331 71.072C222.331 71.264 222.331 71.456 222.331 71.648C222.395 71.84 222.683 71.744 223.195 71.36C223.707 70.976 224.315 70.464 225.019 69.824C225.787 69.12 226.491 68.512 227.131 68C228.283 67.04 229.499 66.08 230.779 65.12C232.123 64.096 233.435 63.2 234.715 62.432C235.995 61.664 237.051 61.152 237.883 60.896C238.971 61.088 239.963 61.632 240.859 62.528C241.819 63.424 242.427 64.192 242.683 64.832C243.003 65.792 243.035 66.656 242.779 67.424C242.587 68.192 242.427 68.896 242.299 69.536C242.235 69.792 242.107 70.272 241.915 70.976C241.723 71.68 241.531 72.352 241.339 72.992C241.147 73.568 241.051 73.856 241.051 73.856C241.051 73.856 241.243 73.664 241.627 73.28C242.011 72.896 242.523 72.448 243.163 71.936C243.803 71.36 244.443 70.848 245.083 70.4C248.283 67.968 250.811 66.432 252.667 65.792C254.587 65.088 256.219 65.632 257.563 67.424C258.331 68.128 258.811 69.088 259.003 70.304C259.259 71.52 259.387 73.152 259.387 75.2C259.451 76.032 259.515 76.96 259.579 77.984C259.707 79.008 259.835 79.904 259.963 80.672C260.155 81.44 260.315 81.92 260.443 82.112C260.635 82.368 260.987 82.624 261.499 82.88C262.011 83.072 262.491 83.232 262.939 83.36C263.835 83.808 264.315 84.64 264.379 85.856C264.507 87.008 264.059 87.904 263.035 88.544C262.075 89.12 261.051 89.472 259.963 89.6C258.939 89.728 257.883 89.76 256.795 89.696ZM262.683 116.672C261.275 116.928 260.315 116.96 259.803 116.768C259.291 116.576 258.587 116.256 257.691 115.808C256.987 115.296 256.475 114.912 256.155 114.656C255.835 114.4 255.611 114.144 255.483 113.888C254.843 112.544 254.747 111.552 255.195 110.912C255.643 110.272 256.283 109.856 257.115 109.664C258.011 109.536 258.779 109.472 259.419 109.472C259.867 109.728 260.603 109.856 261.627 109.856C262.715 109.856 263.387 109.728 263.643 109.472C263.643 109.472 263.931 109.28 264.507 108.896C265.147 108.576 265.979 108.32 267.003 108.128C268.987 107.168 270.555 106.176 271.707 105.152C272.859 104.192 274.139 102.528 275.547 100.16C276.123 99.264 276.731 98.208 277.371 96.992C278.011 95.84 278.459 94.688 278.715 93.536C279.227 92.256 279.803 90.528 280.443 88.352C281.147 86.176 281.755 84.032 282.267 81.92C282.779 79.744 283.067 78.112 283.131 77.024C283.515 73.44 284.251 69.984 285.339 66.656C286.427 63.264 287.291 59.68 287.931 55.904C288.315 55.008 288.603 54.496 288.795 54.368C288.987 54.176 289.403 54.08 290.043 54.08C290.747 54.08 291.579 54.304 292.539 54.752C293.499 55.136 294.203 55.68 294.651 56.384C295.291 57.6 295.579 59.04 295.515 60.704C295.515 62.304 295.099 63.712 294.267 64.928C293.627 65.824 293.051 67.232 292.539 69.152C292.091 71.008 291.643 73.344 291.195 76.16C290.875 77.568 290.523 79.232 290.139 81.152C289.819 83.008 289.467 85.088 289.083 87.392C288.827 88.032 288.475 89.024 288.027 90.368C287.579 91.648 287.291 92.672 287.163 93.44C287.099 93.696 286.907 94.208 286.587 94.976C286.267 95.744 285.947 96.48 285.627 97.184C285.307 97.952 285.083 98.464 284.955 98.72C281.883 104.928 278.331 109.408 274.299 112.16C270.331 114.912 266.459 116.416 262.683 116.672ZM270.747 89.504C270.043 89.504 269.307 89.12 268.539 88.352C267.835 87.584 267.355 86.976 267.099 86.528C266.843 85.888 266.363 85.28 265.659 84.704C264.955 84.128 264.347 83.424 263.835 82.592C263.323 81.76 263.195 80.736 263.451 79.52C263.707 78.688 264.091 77.44 264.603 75.776C265.115 74.048 265.723 72.16 266.427 70.112C267.131 68 267.835 65.92 268.539 63.872C269.307 61.824 270.011 60 270.651 58.4C271.291 56.8 271.835 55.68 272.283 55.04C272.667 54.528 273.275 54.144 274.107 53.888C274.939 53.632 275.771 53.568 276.603 53.696C277.435 53.824 278.043 54.208 278.427 54.848C279.131 55.744 279.515 56.64 279.579 57.536C279.707 58.368 279.259 59.712 278.235 61.568C277.979 62.272 277.659 63.04 277.275 63.872C276.891 64.64 276.699 65.152 276.699 65.408C276.635 65.536 276.507 65.984 276.315 66.752C276.187 67.456 276.027 68.128 275.835 68.768C275.643 69.408 275.451 69.728 275.259 69.728C275.003 69.984 274.715 70.656 274.395 71.744C274.139 72.832 273.883 74.048 273.627 75.392C273.435 76.672 273.307 77.824 273.243 78.848C273.179 79.808 273.275 80.288 273.531 80.288C275.515 80.288 277.435 79.68 279.291 78.464C281.147 77.184 283.163 75.072 285.339 72.128L286.203 81.152C285.307 81.6 284.475 82.08 283.707 82.592C282.939 83.04 282.235 83.584 281.595 84.224C281.403 84.48 280.955 84.832 280.251 85.28C279.547 85.728 278.843 86.144 278.139 86.528C277.499 86.848 277.083 87.008 276.891 87.008C276.891 87.008 276.795 87.04 276.603 87.104C276.475 87.104 276.411 87.232 276.411 87.488C276.411 87.616 275.995 87.872 275.163 88.256C274.331 88.576 273.467 88.864 272.571 89.12C271.675 89.376 271.067 89.504 270.747 89.504ZM328.732 97.76C325.596 97.696 323.58 96.8 322.684 95.072C321.852 93.408 321.628 91.296 322.012 88.736C322.396 87.52 322.62 86.432 322.684 85.472C322.812 84.448 323.1 83.808 323.548 83.552C323.548 83.552 323.58 83.456 323.644 83.264C323.772 83.072 323.74 82.88 323.548 82.688C323.548 81.856 323.836 80.704 324.412 79.232C324.54 78.848 324.7 78.4 324.892 77.888C325.148 77.312 325.276 77.024 325.276 77.024C324.956 76.512 324.956 76.096 325.276 75.776C325.596 75.456 325.916 75.168 326.236 74.912C326.62 74.592 326.652 74.24 326.332 73.856C326.204 73.6 326.364 73.024 326.812 72.128C327.26 71.168 327.772 70.176 328.348 69.152C328.924 68.128 329.308 67.328 329.5 66.752C329.5 66.624 329.66 66.176 329.98 65.408C330.3 64.64 330.684 63.744 331.132 62.72C331.58 61.696 331.996 60.768 332.38 59.936C332.828 59.104 333.116 58.56 333.244 58.304C333.884 57.984 333.628 57.76 332.476 57.632C331.324 57.504 330.108 57.472 328.828 57.536C326.844 57.472 325.244 57.376 324.028 57.248C322.876 57.12 321.916 56.832 321.148 56.384C320.38 55.488 320.284 54.432 320.86 53.216C321.436 51.936 322.364 51.264 323.644 51.2C324.476 51.136 325.116 51.104 325.564 51.104C326.076 51.104 326.716 51.072 327.484 51.008C328.316 50.88 329.596 50.72 331.324 50.528L336.22 50.144L336.508 48.512C337.02 47.68 337.372 47.136 337.564 46.88C337.756 46.624 337.884 46.368 337.948 46.112C338.012 45.792 338.108 45.248 338.236 44.48C338.236 44.48 338.524 43.968 339.1 42.944C339.676 41.856 340.028 40.736 340.156 39.584C340.924 38.304 341.596 37.152 342.172 36.128C342.748 35.04 343.1 34.368 343.228 34.112C344.316 32.512 345.372 31.648 346.396 31.52C347.484 31.392 348.508 31.648 349.468 32.288C350.044 32.608 350.588 33.024 351.1 33.536C351.612 33.984 351.932 34.592 352.06 35.36C352.188 36.064 351.9 36.992 351.196 38.144C351.068 38.4 350.876 38.88 350.62 39.584C350.364 40.224 350.172 40.768 350.044 41.216C349.66 41.664 349.18 42.4 348.604 43.424C348.092 44.384 347.74 45.376 347.548 46.4C347.036 47.488 346.716 48.16 346.588 48.416C346.46 48.672 346.268 48.8 346.012 48.8C346.14 49.44 346.524 49.76 347.164 49.76C347.804 49.696 348.86 49.632 350.332 49.568C351.548 49.44 352.38 49.312 352.828 49.184C353.34 48.992 353.916 49.056 354.556 49.376C354.876 49.824 355.036 50.496 355.036 51.392C355.1 52.224 355.004 53.056 354.748 53.888C354.492 54.656 354.14 55.136 353.692 55.328C353.372 55.328 352.7 55.52 351.676 55.904C350.716 56.224 349.5 56.416 348.028 56.48L342.94 56.96L341.308 60.224C340.86 61.056 340.476 61.824 340.156 62.528C339.836 63.168 339.612 63.552 339.484 63.68C339.484 64.064 339.26 64.64 338.812 65.408C338.428 66.176 338.012 67.008 337.564 67.904C337.18 68.992 336.732 69.984 336.22 70.88C335.772 71.776 335.548 72.224 335.548 72.224C335.292 72.224 335.164 72.416 335.164 72.8C335.484 73.568 335.388 74.144 334.876 74.528C334.556 74.72 334.268 75.008 334.012 75.392C333.82 75.712 333.724 75.872 333.724 75.872C333.98 76.128 334.012 76.448 333.82 76.832C333.692 77.216 333.5 77.632 333.244 78.08C333.244 78.592 333.084 79.328 332.764 80.288C332.508 81.248 332.22 82.144 331.9 82.976C331.964 84.128 332.028 84.864 332.092 85.184C332.156 85.504 332.316 85.632 332.572 85.568C332.892 85.632 333.34 85.632 333.916 85.568C334.492 85.504 334.908 85.472 335.164 85.472C336.124 85.024 335.676 87.264 333.82 92.192C332.796 93.792 331.772 95.104 330.748 96.128C329.724 97.216 329.052 97.76 328.732 97.76ZM352.929 89.984C352.673 89.472 352.097 88.96 351.201 88.448C350.369 87.936 349.953 87.552 349.953 87.296C349.953 87.04 349.793 86.656 349.473 86.144C349.217 85.568 348.961 85.152 348.705 84.896C348.385 84.512 348.481 83.584 348.993 82.112C349.505 80.576 350.273 78.72 351.297 76.544C352.321 74.368 353.441 72.16 354.657 69.92C355.169 69.408 355.681 68.736 356.193 67.904C356.705 67.072 357.089 66.528 357.345 66.272C357.345 66.016 357.441 65.792 357.633 65.6C357.825 65.344 358.049 65.216 358.305 65.216L359.073 63.68C359.201 63.424 359.585 62.912 360.225 62.144C360.929 61.376 361.761 60.544 362.721 59.648C363.681 58.688 364.641 57.792 365.601 56.96C366.625 56.128 367.457 55.52 368.097 55.136C369.441 54.24 370.817 53.824 372.225 53.888C373.697 53.952 374.945 54.4 375.969 55.232C376.161 55.424 376.577 55.808 377.217 56.384C377.921 56.96 378.689 57.6 379.521 58.304C380.417 59.008 381.185 59.648 381.825 60.224L385.377 63.392L383.745 68.192C382.913 70.752 382.689 72.992 383.073 74.912C383.457 76.832 384.065 78.496 384.897 79.904C385.217 80.608 385.633 81.152 386.145 81.536C386.721 81.92 387.457 82.176 388.353 82.304C388.865 82.368 389.345 82.56 389.793 82.88C390.241 83.2 390.465 83.712 390.465 84.416C390.465 85.952 390.177 87.072 389.601 87.776C389.089 88.416 388.513 88.8 387.873 88.928C385.761 89.184 383.745 88.96 381.825 88.256C379.905 87.552 378.177 85.728 376.641 82.784C376.385 82.4 376.033 81.696 375.585 80.672C375.201 79.584 374.977 78.88 374.913 78.56C374.657 78.88 374.305 79.296 373.857 79.808C373.473 80.256 373.089 80.672 372.705 81.056C368.161 85.664 364.257 88.672 360.993 90.08C357.793 91.424 355.105 91.392 352.929 89.984ZM358.209 82.016C358.657 82.08 359.361 81.856 360.321 81.344C361.281 80.768 362.561 79.84 364.161 78.56C366.337 76.704 368.129 75.168 369.537 73.952C370.945 72.736 372.321 71.168 373.665 69.248L375.777 65.792C375.137 64.32 374.561 63.36 374.049 62.912C373.537 62.464 373.025 62.24 372.513 62.24C371.681 62.24 370.689 62.784 369.537 63.872C368.385 64.896 367.073 66.432 365.601 68.48C364.193 70.464 362.593 72.96 360.801 75.968C359.969 77.376 359.329 78.752 358.881 80.096C358.433 81.376 358.209 82.016 358.209 82.016ZM397.597 92.576C395.421 91.68 393.821 90.752 392.797 89.792C391.837 88.768 391.453 87.872 391.645 87.104C391.773 86.72 391.997 86.368 392.317 86.048C392.637 85.728 393.341 85.6 394.429 85.664C395.581 85.664 397.341 85.952 399.709 86.528C400.413 86.528 401.117 86.496 401.821 86.432C402.525 86.368 403.165 86.272 403.741 86.144C404.381 86.016 404.893 85.856 405.277 85.664C405.597 85.536 405.693 85.376 405.565 85.184C405.437 84.928 405.213 84.672 404.893 84.416C404.637 84.096 404.349 83.904 404.029 83.84C403.709 83.712 403.421 83.648 403.165 83.648C403.037 83.328 402.749 83.008 402.301 82.688C401.917 82.368 401.437 82.016 400.861 81.632C399.453 80.48 398.173 79.456 397.021 78.56C395.869 77.664 395.421 76.992 395.677 76.544C395.677 76.288 395.677 76.16 395.677 76.16C395.677 76.096 395.677 76.064 395.677 76.064C395.229 76.064 394.813 75.456 394.429 74.24C394.045 72.96 393.853 71.808 393.853 70.784C393.853 69.504 394.109 68.224 394.621 66.944C395.197 65.664 395.901 64.448 396.733 63.296C397.629 62.144 398.525 61.12 399.421 60.224C400.637 59.072 401.917 57.952 403.261 56.864C404.669 55.712 406.173 54.688 407.773 53.792C409.437 52.896 411.261 52.192 413.245 51.68C414.141 51.488 415.165 51.392 416.317 51.392C417.469 51.392 418.301 51.552 418.813 51.872C419.325 51.552 419.965 51.648 420.733 52.16C421.501 52.608 422.269 53.248 423.037 54.08C423.805 54.912 424.381 55.744 424.765 56.576C424.765 57.344 424.733 58.304 424.669 59.456C424.669 60.544 424.605 61.504 424.477 62.336C424.349 63.168 424.061 63.584 423.613 63.584C423.613 63.584 423.517 63.616 423.325 63.68C423.197 63.68 423.133 63.84 423.133 64.16C423.133 64.8 422.653 65.536 421.693 66.368C420.477 67.2 419.325 67.872 418.237 68.384C417.149 68.896 416.317 68.928 415.741 68.48C415.357 68.224 415.005 67.968 414.685 67.712C414.365 67.456 414.077 67.136 413.821 66.752C413.821 66.752 413.725 66.624 413.533 66.368C413.405 66.048 413.341 65.76 413.341 65.504C413.341 65.248 413.437 65.024 413.629 64.832C413.821 64.576 413.917 64.448 413.917 64.448C414.813 63.616 415.485 62.848 415.933 62.144C416.445 61.44 416.797 60.832 416.989 60.32C417.181 59.744 417.277 59.296 417.277 58.976C417.277 58.592 417.181 58.368 416.989 58.304C416.861 58.176 416.541 58.112 416.029 58.112C415.709 58.112 415.005 58.368 413.917 58.88C412.893 59.392 411.805 60.032 410.653 60.8C409.501 61.504 408.605 62.144 407.965 62.72C407.709 63.168 407.517 63.456 407.389 63.584C407.325 63.712 407.165 63.776 406.909 63.776C406.909 63.52 406.749 63.552 406.429 63.872C406.109 64.192 405.725 64.64 405.277 65.216C404.829 65.792 404.381 66.4 403.933 67.04C403.485 67.68 403.133 68.192 402.877 68.576C402.813 69.152 402.653 69.696 402.397 70.208C402.205 70.656 402.141 71.136 402.205 71.648C402.269 72.288 402.589 72.896 403.165 73.472C403.741 74.048 404.573 74.784 405.661 75.68C407.901 77.344 409.565 78.656 410.653 79.616C411.805 80.576 412.605 81.344 413.053 81.92C413.501 82.496 413.789 83.072 413.917 83.648C415.005 85.632 415.133 87.36 414.301 88.832C413.469 90.24 412.189 91.328 410.461 92.096C409.821 92.416 408.701 92.704 407.101 92.96C405.501 93.28 403.805 93.408 402.013 93.344C400.285 93.344 398.813 93.088 397.597 92.576ZM427.607 91.328C426.647 91.008 425.783 90.496 425.015 89.792C424.311 89.088 424.023 87.936 424.151 86.336C424.279 85.376 424.471 84.384 424.727 83.36C424.983 82.272 425.303 81.216 425.687 80.192C425.879 79.04 426.103 77.888 426.359 76.736C426.679 75.584 427.191 74.496 427.895 73.472C428.727 71.104 429.591 68.768 430.487 66.464C431.383 64.096 432.151 61.632 432.791 59.072C433.751 56.768 434.615 54.72 435.383 52.928C436.215 51.136 437.207 48.832 438.359 46.016C438.999 44.544 439.543 42.912 439.991 41.12C440.503 39.264 441.271 37.632 442.295 36.224C442.743 35.648 443.063 35.168 443.255 34.784C443.511 34.336 443.767 33.92 444.023 33.536C444.471 32.64 445.143 32.224 446.039 32.288C446.999 32.352 447.639 32.608 447.959 33.056C449.047 33.504 449.815 34.336 450.263 35.552C450.711 36.704 450.871 37.536 450.743 38.048C450.743 38.752 450.487 39.52 449.975 40.352C449.719 40.608 449.463 40.992 449.207 41.504C448.951 41.952 448.567 42.56 448.055 43.328C447.799 44.16 447.543 44.992 447.287 45.824C447.031 46.656 446.743 47.424 446.423 48.128C446.103 48.832 445.751 49.536 445.367 50.24C444.983 50.944 444.727 51.52 444.599 51.968C444.023 53.44 443.383 54.88 442.679 56.288C442.039 57.632 441.463 59.072 440.951 60.608C440.439 62.08 439.895 63.648 439.319 65.312C438.743 66.912 438.007 68.448 437.111 69.92C436.663 70.56 436.407 71.424 436.343 72.512C436.343 73.6 436.215 74.656 435.959 75.68C435.511 76.832 435.095 77.888 434.711 78.848C434.391 79.808 434.231 80.416 434.231 80.672C433.783 82.08 433.431 83.488 433.175 84.896C432.919 86.24 432.503 87.424 431.927 88.448C431.927 89.984 431.511 90.944 430.679 91.328C429.847 91.712 428.823 91.712 427.607 91.328ZM449.591 92.192C448.567 92.064 447.799 91.872 447.287 91.616C446.775 91.296 445.815 90.624 444.407 89.6C443.639 88.832 442.679 87.648 441.527 86.048C440.375 84.448 439.223 82.752 438.071 80.96C436.919 79.104 435.895 77.536 434.999 76.256L440.279 69.536C441.111 70.56 441.783 71.52 442.295 72.416C442.807 73.312 443.223 73.92 443.543 74.24C445.015 76.416 446.167 78.176 446.999 79.52C447.831 80.864 448.535 81.952 449.111 82.784C449.751 83.616 450.455 84.352 451.223 84.992C451.991 85.632 452.983 86.304 454.199 87.008C454.391 87.136 454.583 87.456 454.775 87.968C454.967 88.416 455.031 88.896 454.967 89.408C454.839 90.176 454.359 90.816 453.527 91.328C452.759 91.776 451.447 92.064 449.591 92.192ZM435.671 74.432C435.287 73.344 435.191 72.128 435.383 70.784C435.639 69.376 436.183 68.448 437.015 68C437.271 67.552 437.527 67.264 437.783 67.136C438.103 66.944 438.295 66.72 438.359 66.464C438.487 66.208 438.807 65.856 439.319 65.408C439.895 64.96 440.407 64.544 440.855 64.16C441.879 63.52 442.999 62.752 444.215 61.856C445.495 60.896 446.711 59.936 447.863 58.976C449.079 58.016 450.071 57.184 450.839 56.48C451.671 55.776 452.183 55.328 452.375 55.136C452.567 54.88 452.951 54.72 453.527 54.656C454.167 54.592 454.775 54.688 455.351 54.944C456.119 55.136 456.727 55.552 457.175 56.192C457.687 56.832 457.943 57.728 457.943 58.88C458.135 59.584 457.719 60.448 456.695 61.472C455.735 62.432 454.519 63.392 453.047 64.352C452.535 64.672 451.831 65.152 450.935 65.792C450.103 66.432 449.367 67.04 448.727 67.616C448.279 67.872 447.607 68.32 446.711 68.96C445.879 69.536 445.143 70.112 444.503 70.688C443.991 71.008 443.383 71.584 442.679 72.416C442.039 73.184 441.303 73.76 440.471 74.144C438.423 76.064 437.175 76.992 436.727 76.928C436.343 76.864 435.991 76.032 435.671 74.432Z" fill="white"/>
<path d="M257.18 133.54C257.54 133.007 258.033 132.573 258.66 132.24C259.3 131.907 260.027 131.74 260.84 131.74C261.787 131.74 262.64 131.973 263.4 132.44C264.173 132.907 264.78 133.573 265.22 134.44C265.673 135.293 265.9 136.287 265.9 137.42C265.9 138.553 265.673 139.56 265.22 140.44C264.78 141.307 264.173 141.98 263.4 142.46C262.64 142.94 261.787 143.18 260.84 143.18C260.013 143.18 259.287 143.02 258.66 142.7C258.047 142.367 257.553 141.94 257.18 141.42V143H254.38V128.2H257.18V133.54ZM263.04 137.42C263.04 136.753 262.9 136.18 262.62 135.7C262.353 135.207 261.993 134.833 261.54 134.58C261.1 134.327 260.62 134.2 260.1 134.2C259.593 134.2 259.113 134.333 258.66 134.6C258.22 134.853 257.86 135.227 257.58 135.72C257.313 136.213 257.18 136.793 257.18 137.46C257.18 138.127 257.313 138.707 257.58 139.2C257.86 139.693 258.22 140.073 258.66 140.34C259.113 140.593 259.593 140.72 260.1 140.72C260.62 140.72 261.1 140.587 261.54 140.32C261.993 140.053 262.353 139.673 262.62 139.18C262.9 138.687 263.04 138.1 263.04 137.42ZM277.535 137.22C277.535 137.62 277.508 137.98 277.455 138.3H269.355C269.421 139.1 269.701 139.727 270.195 140.18C270.688 140.633 271.295 140.86 272.015 140.86C273.055 140.86 273.795 140.413 274.235 139.52H277.255C276.935 140.587 276.321 141.467 275.415 142.16C274.508 142.84 273.395 143.18 272.075 143.18C271.008 143.18 270.048 142.947 269.195 142.48C268.355 142 267.695 141.327 267.215 140.46C266.748 139.593 266.515 138.593 266.515 137.46C266.515 136.313 266.748 135.307 267.215 134.44C267.681 133.573 268.335 132.907 269.175 132.44C270.015 131.973 270.981 131.74 272.075 131.74C273.128 131.74 274.068 131.967 274.895 132.42C275.735 132.873 276.381 133.52 276.835 134.36C277.301 135.187 277.535 136.14 277.535 137.22ZM274.635 136.42C274.621 135.7 274.361 135.127 273.855 134.7C273.348 134.26 272.728 134.04 271.995 134.04C271.301 134.04 270.715 134.253 270.235 134.68C269.768 135.093 269.481 135.673 269.375 136.42H274.635ZM288.024 134.22H286.084V143H283.244V134.22H281.984V131.92H283.244V131.36C283.244 130 283.631 129 284.404 128.36C285.177 127.72 286.344 127.42 287.904 127.46V129.82C287.224 129.807 286.751 129.92 286.484 130.16C286.217 130.4 286.084 130.833 286.084 131.46V131.92H288.024V134.22ZM294.059 143.18C292.992 143.18 292.032 142.947 291.179 142.48C290.325 142 289.652 141.327 289.159 140.46C288.679 139.593 288.439 138.593 288.439 137.46C288.439 136.327 288.685 135.327 289.179 134.46C289.685 133.593 290.372 132.927 291.239 132.46C292.105 131.98 293.072 131.74 294.139 131.74C295.205 131.74 296.172 131.98 297.039 132.46C297.905 132.927 298.585 133.593 299.079 134.46C299.585 135.327 299.839 136.327 299.839 137.46C299.839 138.593 299.579 139.593 299.059 140.46C298.552 141.327 297.859 142 296.979 142.48C296.112 142.947 295.139 143.18 294.059 143.18ZM294.059 140.74C294.565 140.74 295.039 140.62 295.479 140.38C295.932 140.127 296.292 139.753 296.559 139.26C296.825 138.767 296.959 138.167 296.959 137.46C296.959 136.407 296.679 135.6 296.119 135.04C295.572 134.467 294.899 134.18 294.099 134.18C293.299 134.18 292.625 134.467 292.079 135.04C291.545 135.6 291.279 136.407 291.279 137.46C291.279 138.513 291.539 139.327 292.059 139.9C292.592 140.46 293.259 140.74 294.059 140.74ZM300.472 137.46C300.472 136.313 300.706 135.313 301.173 134.46C301.639 133.593 302.286 132.927 303.113 132.46C303.939 131.98 304.886 131.74 305.953 131.74C307.326 131.74 308.459 132.087 309.353 132.78C310.259 133.46 310.866 134.42 311.173 135.66H308.153C307.993 135.18 307.719 134.807 307.333 134.54C306.959 134.26 306.493 134.12 305.933 134.12C305.133 134.12 304.499 134.413 304.033 135C303.566 135.573 303.333 136.393 303.333 137.46C303.333 138.513 303.566 139.333 304.033 139.92C304.499 140.493 305.133 140.78 305.933 140.78C307.066 140.78 307.806 140.273 308.153 139.26H311.173C310.866 140.46 310.259 141.413 309.353 142.12C308.446 142.827 307.313 143.18 305.953 143.18C304.886 143.18 303.939 142.947 303.113 142.48C302.286 142 301.639 141.333 301.173 140.48C300.706 139.613 300.472 138.607 300.472 137.46ZM322.984 131.92V143H320.164V141.6C319.804 142.08 319.33 142.46 318.744 142.74C318.17 143.007 317.544 143.14 316.864 143.14C315.997 143.14 315.23 142.96 314.564 142.6C313.897 142.227 313.37 141.687 312.984 140.98C312.61 140.26 312.424 139.407 312.424 138.42V131.92H315.224V138.02C315.224 138.9 315.444 139.58 315.884 140.06C316.324 140.527 316.924 140.76 317.684 140.76C318.457 140.76 319.064 140.527 319.504 140.06C319.944 139.58 320.164 138.9 320.164 138.02V131.92H322.984ZM329.286 143.18C328.38 143.18 327.566 143.02 326.846 142.7C326.126 142.367 325.553 141.92 325.126 141.36C324.713 140.8 324.486 140.18 324.446 139.5H327.266C327.32 139.927 327.526 140.28 327.886 140.56C328.26 140.84 328.72 140.98 329.266 140.98C329.8 140.98 330.213 140.873 330.506 140.66C330.813 140.447 330.966 140.173 330.966 139.84C330.966 139.48 330.78 139.213 330.406 139.04C330.046 138.853 329.466 138.653 328.666 138.44C327.84 138.24 327.16 138.033 326.626 137.82C326.106 137.607 325.653 137.28 325.266 136.84C324.893 136.4 324.706 135.807 324.706 135.06C324.706 134.447 324.88 133.887 325.226 133.38C325.586 132.873 326.093 132.473 326.746 132.18C327.413 131.887 328.193 131.74 329.086 131.74C330.406 131.74 331.46 132.073 332.246 132.74C333.033 133.393 333.466 134.28 333.546 135.4H330.866C330.826 134.96 330.64 134.613 330.306 134.36C329.986 134.093 329.553 133.96 329.006 133.96C328.5 133.96 328.106 134.053 327.826 134.24C327.56 134.427 327.426 134.687 327.426 135.02C327.426 135.393 327.613 135.68 327.986 135.88C328.36 136.067 328.94 136.26 329.726 136.46C330.526 136.66 331.186 136.867 331.706 137.08C332.226 137.293 332.673 137.627 333.046 138.08C333.433 138.52 333.633 139.107 333.646 139.84C333.646 140.48 333.466 141.053 333.106 141.56C332.76 142.067 332.253 142.467 331.586 142.76C330.933 143.04 330.166 143.18 329.286 143.18ZM338.305 140.06L335.965 145.68H334.165L335.465 140.06H338.305ZM346.489 133.54C346.849 133.007 347.342 132.573 347.969 132.24C348.609 131.907 349.335 131.74 350.149 131.74C351.095 131.74 351.949 131.973 352.709 132.44C353.482 132.907 354.089 133.573 354.529 134.44C354.982 135.293 355.209 136.287 355.209 137.42C355.209 138.553 354.982 139.56 354.529 140.44C354.089 141.307 353.482 141.98 352.709 142.46C351.949 142.94 351.095 143.18 350.149 143.18C349.322 143.18 348.595 143.02 347.969 142.7C347.355 142.367 346.862 141.94 346.489 141.42V143H343.689V128.2H346.489V133.54ZM352.349 137.42C352.349 136.753 352.209 136.18 351.929 135.7C351.662 135.207 351.302 134.833 350.849 134.58C350.409 134.327 349.929 134.2 349.409 134.2C348.902 134.2 348.422 134.333 347.969 134.6C347.529 134.853 347.169 135.227 346.889 135.72C346.622 136.213 346.489 136.793 346.489 137.46C346.489 138.127 346.622 138.707 346.889 139.2C347.169 139.693 347.529 140.073 347.969 140.34C348.422 140.593 348.902 140.72 349.409 140.72C349.929 140.72 350.409 140.587 350.849 140.32C351.302 140.053 351.662 139.673 351.929 139.18C352.209 138.687 352.349 138.1 352.349 137.42ZM366.843 137.22C366.843 137.62 366.817 137.98 366.763 138.3H358.663C358.73 139.1 359.01 139.727 359.503 140.18C359.997 140.633 360.603 140.86 361.323 140.86C362.363 140.86 363.103 140.413 363.543 139.52H366.563C366.243 140.587 365.63 141.467 364.723 142.16C363.817 142.84 362.703 143.18 361.383 143.18C360.317 143.18 359.357 142.947 358.503 142.48C357.663 142 357.003 141.327 356.523 140.46C356.057 139.593 355.823 138.593 355.823 137.46C355.823 136.313 356.057 135.307 356.523 134.44C356.99 133.573 357.643 132.907 358.483 132.44C359.323 131.973 360.29 131.74 361.383 131.74C362.437 131.74 363.377 131.967 364.203 132.42C365.043 132.873 365.69 133.52 366.143 134.36C366.61 135.187 366.843 136.14 366.843 137.22ZM363.943 136.42C363.93 135.7 363.67 135.127 363.163 134.7C362.657 134.26 362.037 134.04 361.303 134.04C360.61 134.04 360.023 134.253 359.543 134.68C359.077 135.093 358.79 135.673 358.683 136.42H363.943ZM382.553 137.22C382.553 137.62 382.526 137.98 382.473 138.3H374.373C374.439 139.1 374.719 139.727 375.213 140.18C375.706 140.633 376.313 140.86 377.033 140.86C378.073 140.86 378.813 140.413 379.253 139.52H382.273C381.953 140.587 381.339 141.467 380.433 142.16C379.526 142.84 378.413 143.18 377.093 143.18C376.026 143.18 375.066 142.947 374.213 142.48C373.373 142 372.713 141.327 372.233 140.46C371.766 139.593 371.533 138.593 371.533 137.46C371.533 136.313 371.766 135.307 372.233 134.44C372.699 133.573 373.353 132.907 374.193 132.44C375.033 131.973 375.999 131.74 377.093 131.74C378.146 131.74 379.086 131.967 379.913 132.42C380.753 132.873 381.399 133.52 381.853 134.36C382.319 135.187 382.553 136.14 382.553 137.22ZM379.653 136.42C379.639 135.7 379.379 135.127 378.873 134.7C378.366 134.26 377.746 134.04 377.013 134.04C376.319 134.04 375.733 134.253 375.253 134.68C374.786 135.093 374.499 135.673 374.393 136.42H379.653ZM388.976 134.22H387.036V143H384.196V134.22H382.936V131.92H384.196V131.36C384.196 130 384.583 129 385.356 128.36C386.13 127.72 387.296 127.42 388.856 127.46V129.82C388.176 129.807 387.703 129.92 387.436 130.16C387.17 130.4 387.036 130.833 387.036 131.46V131.92H388.976V134.22ZM395.171 134.22H393.231V143H390.391V134.22H389.131V131.92H390.391V131.36C390.391 130 390.778 129 391.551 128.36C392.324 127.72 393.491 127.42 395.051 127.46V129.82C394.371 129.807 393.898 129.92 393.631 130.16C393.364 130.4 393.231 130.833 393.231 131.46V131.92H395.171V134.22ZM406.585 137.22C406.585 137.62 406.559 137.98 406.505 138.3H398.405C398.472 139.1 398.752 139.727 399.245 140.18C399.739 140.633 400.345 140.86 401.065 140.86C402.105 140.86 402.845 140.413 403.285 139.52H406.305C405.985 140.587 405.372 141.467 404.465 142.16C403.559 142.84 402.445 143.18 401.125 143.18C400.059 143.18 399.099 142.947 398.245 142.48C397.405 142 396.745 141.327 396.265 140.46C395.799 139.593 395.565 138.593 395.565 137.46C395.565 136.313 395.799 135.307 396.265 134.44C396.732 133.573 397.385 132.907 398.225 132.44C399.065 131.973 400.032 131.74 401.125 131.74C402.179 131.74 403.119 131.967 403.945 132.42C404.785 132.873 405.432 133.52 405.885 134.36C406.352 135.187 406.585 136.14 406.585 137.22ZM403.685 136.42C403.672 135.7 403.412 135.127 402.905 134.7C402.399 134.26 401.779 134.04 401.045 134.04C400.352 134.04 399.765 134.253 399.285 134.68C398.819 135.093 398.532 135.673 398.425 136.42H403.685ZM407.209 137.46C407.209 136.313 407.443 135.313 407.909 134.46C408.376 133.593 409.023 132.927 409.849 132.46C410.676 131.98 411.623 131.74 412.689 131.74C414.063 131.74 415.196 132.087 416.089 132.78C416.996 133.46 417.603 134.42 417.909 135.66H414.889C414.729 135.18 414.456 134.807 414.069 134.54C413.696 134.26 413.229 134.12 412.669 134.12C411.869 134.12 411.236 134.413 410.769 135C410.303 135.573 410.069 136.393 410.069 137.46C410.069 138.513 410.303 139.333 410.769 139.92C411.236 140.493 411.869 140.78 412.669 140.78C413.803 140.78 414.543 140.273 414.889 139.26H417.909C417.603 140.46 416.996 141.413 416.089 142.12C415.183 142.827 414.049 143.18 412.689 143.18C411.623 143.18 410.676 142.947 409.849 142.48C409.023 142 408.376 141.333 407.909 140.48C407.443 139.613 407.209 138.607 407.209 137.46ZM422.52 134.22V139.58C422.52 139.953 422.607 140.227 422.78 140.4C422.967 140.56 423.274 140.64 423.7 140.64H425V143H423.24C420.88 143 419.7 141.853 419.7 139.56V134.22H418.38V131.92H419.7V129.18H422.52V131.92H425V134.22H422.52ZM427.734 130.6C427.241 130.6 426.828 130.447 426.494 130.14C426.174 129.82 426.014 129.427 426.014 128.96C426.014 128.493 426.174 128.107 426.494 127.8C426.828 127.48 427.241 127.32 427.734 127.32C428.228 127.32 428.634 127.48 428.954 127.8C429.288 128.107 429.454 128.493 429.454 128.96C429.454 129.427 429.288 129.82 428.954 130.14C428.634 130.447 428.228 130.6 427.734 130.6ZM429.114 131.92V143H426.314V131.92H429.114ZM435.801 140.42L438.601 131.92H441.581L437.481 143H434.081L430.001 131.92H433.001L435.801 140.42ZM452.753 137.22C452.753 137.62 452.727 137.98 452.673 138.3H444.573C444.64 139.1 444.92 139.727 445.413 140.18C445.907 140.633 446.513 140.86 447.233 140.86C448.273 140.86 449.013 140.413 449.453 139.52H452.473C452.153 140.587 451.54 141.467 450.633 142.16C449.727 142.84 448.613 143.18 447.293 143.18C446.227 143.18 445.267 142.947 444.413 142.48C443.573 142 442.913 141.327 442.433 140.46C441.967 139.593 441.733 138.593 441.733 137.46C441.733 136.313 441.967 135.307 442.433 134.44C442.9 133.573 443.553 132.907 444.393 132.44C445.233 131.973 446.2 131.74 447.293 131.74C448.347 131.74 449.287 131.967 450.113 132.42C450.953 132.873 451.6 133.52 452.053 134.36C452.52 135.187 452.753 136.14 452.753 137.22ZM449.853 136.42C449.84 135.7 449.58 135.127 449.073 134.7C448.567 134.26 447.947 134.04 447.213 134.04C446.52 134.04 445.933 134.253 445.453 134.68C444.987 135.093 444.7 135.673 444.593 136.42H449.853Z" fill="white"/>
</svg>
